<svg xmlns="http://www.w3.org/2000/svg" xmlns:xlink="http://www.w3.org/1999/xlink" width="432" zoomAndPan="magnify" viewBox="0 0 324 323.999988" height="432" preserveAspectRatio="xMidYMid meet" version="1.0"><path fill="#ffffff" d="M 117.207031 324 C 68.683594 298.617188 33.59375 246.359375 35.085938 191.113281 C 35.835938 166.480469 42.554688 143.335938 58.230469 123.179688 C 70.175781 108.25 84.359375 96.304688 102.277344 89.585938 C 115.714844 84.359375 129.898438 81.375 144.082031 82.867188 C 157.519531 84.359375 169.464844 88.09375 181.410156 94.8125 C 189.621094 99.289062 196.339844 106.007812 205.300781 110.488281 C 206.792969 111.234375 208.285156 111.234375 209.777344 110.488281 C 214.257812 107.503906 212.765625 101.53125 212.019531 97.050781 C 204.554688 68.683594 179.917969 52.257812 153.789062 44.046875 C 150.054688 43.300781 146.324219 42.554688 142.589844 41.804688 C 82.867188 31.355469 26.128906 65.695312 0 117.207031 C 23.890625 67.933594 76.894531 33.59375 132.136719 35.085938 C 166.480469 35.835938 199.328125 50.765625 220.976562 79.132812 C 240.386719 103.769531 245.613281 135.125 236.65625 164.238281 C 233.667969 171.703125 230.683594 178.425781 226.203125 185.890625 C 222.46875 191.863281 217.992188 196.339844 214.257812 202.3125 C 213.511719 204.554688 212.019531 206.792969 212.765625 209.03125 C 215.75 213.511719 221.722656 212.765625 226.203125 212.019531 C 239.640625 208.285156 250.09375 201.566406 259.050781 191.113281 C 280.699219 166.480469 287.417969 134.378906 282.195312 102.277344 C 274.726562 57.484375 244.867188 20.902344 206.792969 0 C 244.867188 20.15625 274.726562 54.496094 285.179688 97.796875 C 293.390625 135.871094 286.671875 174.691406 261.289062 205.300781 C 238.894531 231.429688 206.792969 244.867188 172.453125 239.640625 C 152.292969 236.65625 136.617188 224.710938 119.445312 213.511719 C 117.207031 212.019531 113.476562 212.019531 111.980469 215.003906 C 108.25 226.203125 114.96875 236.65625 120.941406 246.359375 C 132.136719 262.035156 147.070312 271.742188 164.984375 277.714844 C 226.949219 299.363281 294.136719 261.289062 324 206.792969 C 318.027344 217.246094 311.308594 226.949219 303.84375 236.65625 C 296.378906 245.613281 288.164062 252.332031 279.207031 259.796875 C 260.542969 274.726562 239.640625 282.195312 216.496094 286.671875 C 194.847656 290.40625 173.199219 288.914062 153.042969 281.445312 C 136.617188 275.476562 122.433594 265.769531 109.742188 253.078125 C 94.066406 235.90625 83.613281 214.257812 82.867188 191.113281 C 82.121094 173.945312 86.597656 157.519531 94.8125 141.84375 C 100.035156 132.886719 107.503906 125.417969 111.234375 115.714844 C 109.742188 110.488281 103.023438 110.488281 98.542969 111.234375 C 88.839844 113.476562 80.625 117.953125 72.414062 124.671875 C 55.246094 139.605469 46.285156 159.015625 41.804688 181.410156 C 38.074219 200.074219 39.566406 218.738281 44.792969 236.65625 C 55.992188 274.726562 83.613281 304.589844 117.207031 324 " fill-opacity="1" fill-rule="nonzero"/></svg>